<svg xmlns="http://www.w3.org/2000/svg" version="1.1" xmlns:xlink="http://www.w3.org/1999/xlink" width="1000" height="1000"><metadata><rdf:RDF xmlns:rdf="http://www.w3.org/1999/02/22-rdf-syntax-ns#" xmlns:dc="http://purl.org/dc/elements/1.1/"><rdf:Description><dc:creator>RealFaviconGenerator</dc:creator><dc:source>https://realfavicongenerator.net</dc:source></rdf:Description></rdf:RDF></metadata><g clip-path="url(#SvgjsClipPath1017)"><rect width="1000" height="1000" fill="#e8d5b0"></rect><g transform="matrix(0.7,0,0,0.7,150,257.14200000000005)"><svg xmlns="http://www.w3.org/2000/svg" id="Layer_1" data-name="Layer 1" viewBox="0 0 1000 693.88" width="1000" height="693.88"><path d="M711.93,693.88c-81.63,0-152.28-31.4-211.93-94.19-59.65,62.79-130.3,94.19-211.93,94.19h0C128.97,693.88,0,564.9,0,405.81v-254.32C0,67.82,67.82,0,151.49,0h0v404.24c0,75.43,61.15,136.58,136.58,136.58h0c37.68,0,69.86-13.34,95.76-39.25,25.9-25.9,39.25-58.87,40.03-97.33v-251.96c0-84.1,68.18-152.28,152.28-152.28h0v404.24c0,37.68,13.34,69.86,40.03,96.55,25.9,26.69,58.08,40.03,95.76,40.03h0c75,0,135.79-60.8,135.79-135.79v-252.75C847.72,68.18,915.9,0,1000,0h0v405.81c0,159.1-128.97,288.07-288.07,288.07h0Z"></path></svg></g></g><defs><clipPath id="SvgjsClipPath1017"><rect width="1000" height="1000" x="0" y="0" rx="350" ry="350"></rect></clipPath></defs></svg>